<svg width="16" height="17" viewBox="0 0 16 17" fill="none" xmlns="http://www.w3.org/2000/svg">
<path d="M3.6467 16.478V5.96631H0.37717V16.478H3.6467ZM1.99436 4.56006C3.04904 4.56006 3.89279 3.68115 3.89279 2.62646C3.89279 1.60693 3.04904 0.763184 1.99436 0.763184C0.974826 0.763184 0.131076 1.60693 0.131076 2.62646C0.131076 3.68115 0.974826 4.56006 1.99436 4.56006ZM15.8459 16.478H15.8811V10.7124C15.8811 7.8999 15.2483 5.72021 11.9436 5.72021C10.3615 5.72021 9.30686 6.59912 8.84983 7.40771H8.81467V5.96631H5.68576V16.478H8.95529V11.2749C8.95529 9.90381 9.20139 8.60303 10.8889 8.60303C12.5764 8.60303 12.6115 10.1499 12.6115 11.3804V16.478H15.8459Z" fill="#292F36"/>
</svg>
