<svg width="19" height="16" viewBox="0 0 19 16" fill="none" xmlns="http://www.w3.org/2000/svg">
<path d="M16.9559 4.07178C17.659 3.54443 18.2918 2.91162 18.784 2.17334C18.1512 2.45459 17.4129 2.66553 16.6746 2.73584C17.4481 2.27881 18.0106 1.57568 18.2918 0.696777C17.5887 1.11865 16.7801 1.43506 15.9715 1.61084C15.2684 0.872559 14.3192 0.450684 13.2645 0.450684C11.2254 0.450684 9.57307 2.10303 9.57307 4.14209C9.57307 4.42334 9.60822 4.70459 9.67854 4.98584C6.61994 4.81006 3.87775 3.3335 2.04963 1.11865C1.73322 1.646 1.55744 2.27881 1.55744 2.98193C1.55744 4.24756 2.19025 5.37256 3.20979 6.04053C2.61213 6.00537 2.01447 5.86475 1.52229 5.5835V5.61865C1.52229 7.41162 2.78791 8.88818 4.47541 9.23975C4.19416 9.31006 3.8426 9.38037 3.52619 9.38037C3.2801 9.38037 3.06916 9.34521 2.82307 9.31006C3.2801 10.7866 4.65119 11.8413 6.26838 11.8765C5.00275 12.8608 3.42072 13.4585 1.69807 13.4585C1.38166 13.4585 1.10041 13.4233 0.81916 13.3882C2.43635 14.4429 4.36994 15.0405 6.47932 15.0405C13.2645 15.0405 16.9559 9.45068 16.9559 4.56396C16.9559 4.38818 16.9559 4.24756 16.9559 4.07178Z" fill="#292F36"/>
</svg>
